<svg width="192" height="192" viewBox="0 0 192 192" fill="none" xmlns="http://www.w3.org/2000/svg">
<path d="M0 0H192V192H0V0Z" fill="#F3623A"/>
<path d="M44.1505 32.638C45.1793 30.6815 47.11 28.6924 48.7832 27.865C51.4907 26.5254 55.9307 26.7723 58.2826 28.3936C60.837 30.1538 61.9281 32.6698 61.8444 36.607C61.7754 39.8746 61.3735 41.5753 56.7526 58.1595C48.8817 86.4087 42.4971 114.421 40.4768 129.567C39.4268 137.439 39.4841 137.516 43.0681 133.042C58.1652 114.194 81.947 75.4948 100.238 40.0135C103.951 32.81 106.267 30.748 110.646 30.748C113.615 30.748 115.441 31.9177 116.852 34.7242C117.76 36.53 117.896 37.3318 117.846 40.5827C117.797 43.7164 117.323 46.1767 115.025 55.23C108.799 79.7534 105.138 97.1812 102.535 114.68C100.726 126.844 99.9086 138.912 100.799 140.308C101.245 141.007 105.405 136.665 109.539 131.184C126.042 109.303 143.298 75.2065 157.432 36.5488C159.518 30.8439 160.47 29.4909 163.454 27.9935C165.357 27.0385 166.062 26.9092 168.591 27.0515C172.203 27.2544 174.629 28.7192 176.082 31.5746C177.586 34.5337 177.354 36.5534 174.546 44.9116C165.115 72.9805 147.441 107.031 128.897 132.861C122.179 142.217 113.216 152.08 107.431 156.481C103.973 159.111 99.8728 161.131 96.6157 161.807C92.1913 162.726 87.2185 160.293 84.5775 155.917C82.6077 152.654 81.7917 148.721 81.6613 141.859C81.4728 131.935 84.7858 109.819 89.2313 91.3252C89.5494 90.0015 89.7678 88.9189 89.7169 88.9189C89.666 88.9189 88.813 90.4723 87.822 92.3715C85.4166 96.9791 74.2647 116.222 70.0561 123.026C56.8994 144.298 46.7734 156.183 38.2309 160.382C35.2894 161.827 34.7748 161.945 31.4491 161.929C28.3801 161.915 27.5284 161.746 25.6637 160.783C22.9895 159.401 20.7339 156.59 19.7404 153.399C18.8276 150.469 18.738 138.329 19.5876 132.652C21.9858 116.618 27.546 92.5117 36.527 59.2057C40.9413 42.8359 43.5281 33.821 44.1505 32.638Z" fill="white"/>
</svg>
