<svg width="1002" height="317" viewBox="0 0 1002 317" fill="none" xmlns="http://www.w3.org/2000/svg">
<path fill-rule="evenodd" clip-rule="evenodd" d="M604.489 43.952C594.862 47.016 584.703 60.6941 562.625 100.319L555.238 113.577L537.519 114.099C527.773 114.386 518.692 115.113 517.339 115.713C509.22 119.317 505.859 130.456 510.695 137.737C513.883 142.54 522.147 146.472 529.082 146.489C532.098 146.496 535.517 146.757 536.679 147.068C538.784 147.632 538.78 147.66 535.811 154.175C518.963 191.139 507.495 229.833 507.495 249.714C507.495 257.215 510.292 268.03 514.141 275.405C519.804 286.254 530.113 294.039 544.461 298.302C552.698 300.748 573.883 300.759 585.263 298.321C607.432 293.575 628.555 283.073 640.706 270.756C647.442 263.927 649.672 258.617 649.033 250.925C648.634 246.131 648.105 244.921 645.323 242.44C640.467 238.112 636.301 238.947 624.647 246.585C605.872 258.891 588.816 265.285 572.958 265.965C564.026 266.348 562.756 266.179 559.263 264.128C553.907 260.984 551.552 255.964 551.004 246.52C550.118 231.236 559.799 199.247 576.601 161.952L583.573 146.476L588.11 146.364C590.604 146.302 593.975 146.107 595.599 145.932C605.092 144.904 622.637 143.49 631.92 143.004C650.037 142.056 656.098 140.223 660.467 134.372C663.461 130.363 663.229 122.833 660.006 119.345C655.33 114.287 653.151 113.952 625.428 114.034L599.835 114.111L603.541 107.461C609.729 96.3536 615.719 86.6391 623.685 74.7856C627.861 68.5741 631.828 62.4343 632.499 61.1409C634.077 58.1034 633.208 51.6445 630.876 49.0715C625.715 43.3795 613.647 41.0383 604.489 43.952ZM765.56 44.775C755.573 49.5409 748.46 59.3516 726.535 98.6005L717.895 114.068H700.954C685.125 114.068 683.73 114.217 679.688 116.35C674.301 119.192 671.815 123.297 671.672 129.592C671.519 136.264 674.097 140.326 680.653 143.743C684.839 145.924 687.216 146.479 692.43 146.49C696.023 146.499 699.516 146.857 700.192 147.285C701.113 147.868 700.097 151.13 696.146 160.281C683.244 190.163 674.372 218.678 671.808 238.502C668.833 261.508 676.259 280.883 691.926 290.984C708.825 301.881 735.131 303.292 761.893 294.739C784.211 287.606 805.278 273.088 810.746 261.072C814.145 253.603 812.735 244.944 807.526 241.304C803.178 238.266 798.079 239.311 789.519 244.996C767.978 259.3 749.698 266.287 733.809 266.287C722.137 266.287 716.674 261.956 714.347 250.859C711.309 236.369 722.495 198.161 742.069 156.178L746.473 146.731L751.758 146.114C757.876 145.401 778.031 143.894 792.974 143.033C813.16 141.868 819.955 139.906 823.475 134.226C826.102 129.984 826.123 123.031 823.517 119.726C819.345 114.435 817.082 114.068 788.669 114.068H762.512L769.498 102.038C773.341 95.4206 780.858 83.41 786.205 75.3474C794.775 62.4235 795.927 60.1805 795.927 56.4084C795.927 48.0992 789.874 43.5219 777.832 42.7255C771.767 42.3248 770.116 42.6007 765.56 44.775ZM410.408 113.51C403.305 115.12 391.451 120.411 384.763 124.958C363.622 139.331 340.361 166.042 321.906 197.139C307.788 220.927 299.718 244.96 301.154 258.939C302.143 268.568 304.368 273.71 310.067 279.533C313.953 283.503 316.463 285.145 320.462 286.329C340.136 292.158 368.475 280.782 396.769 255.699C405.644 247.831 417.142 235.795 422.515 228.748L424.555 226.072L425.227 232C427.832 254.962 437.618 272.127 452.181 279.275C458.263 282.261 459.44 282.491 468.617 282.491C477.951 282.491 478.887 282.299 485.37 279.053C493.693 274.886 496.668 271.033 496.662 264.423C496.656 256.456 491.245 250.548 482.708 249.186C473.565 247.728 470.032 243.807 466.962 231.711C463.21 216.93 465.595 194.564 472.91 175.937C474.501 171.886 476.732 166.247 477.867 163.405C480.33 157.242 480.438 154.496 478.407 149.65C475.597 142.938 469.577 138.45 461.673 137.172C459.533 136.825 456.861 136.358 455.736 136.132C454.518 135.887 452.617 133.752 451.038 130.857C443.499 117.04 426.627 109.836 410.408 113.51ZM423.21 151.416C426.69 154.464 429.726 161.321 429.726 166.135C429.726 167.573 427.537 172.384 424.86 176.826C409.546 202.246 376.006 234.443 352.596 246.199C343.491 250.77 340.145 251.558 340.145 249.129C340.145 248.335 341.459 244.091 343.065 239.699C353.116 212.227 382.953 170.03 402.579 155.531C406.93 152.317 415.475 148.556 418.617 148.472C419.276 148.455 421.342 149.779 423.21 151.416Z" fill="#F3623A"/>
<path d="M58.8347 13.4228C61.2415 8.83172 65.758 4.164 69.672 2.22248C76.0057 -0.921082 86.3923 -0.341664 91.8941 3.46282C97.8695 7.59335 100.422 13.4975 100.226 22.7367C100.065 30.4046 99.1246 34.3956 88.3148 73.3125C69.9024 139.603 54.9669 205.337 50.2408 240.881C47.7847 259.353 47.9185 259.534 56.3028 249.035C91.6195 204.806 147.252 113.992 190.04 30.7306C198.726 13.8265 204.144 8.98787 214.389 8.98787C221.334 8.98787 225.605 11.7327 228.906 18.3184C231.031 22.556 231.349 24.4376 231.231 32.0662C231.116 39.4198 230.008 45.1933 224.632 66.4382C210.069 123.986 201.503 164.882 195.415 205.945C191.183 234.491 189.27 262.809 191.353 266.085C192.397 267.726 202.127 257.536 211.798 244.674C250.405 193.328 290.771 113.316 323.835 22.6001C328.715 9.21275 330.941 6.03777 337.922 2.52398C342.373 0.282925 344.022 -0.0205331 349.939 0.313366C358.39 0.789663 364.065 4.22687 367.462 10.9274C370.982 17.8716 370.439 22.6109 363.87 42.2246C341.808 108.092 300.464 187.997 257.082 248.61C241.368 270.564 220.4 293.71 206.868 304.037C198.778 310.21 189.186 314.949 181.567 316.536C171.217 318.692 159.584 312.982 153.406 302.714C148.798 295.056 146.889 285.827 146.584 269.724C146.143 246.437 153.893 194.539 164.293 151.14C165.037 148.034 165.548 145.494 165.429 145.494C165.309 145.494 163.314 149.139 160.996 153.596C155.369 164.408 129.281 209.564 119.436 225.531C88.6584 275.447 64.9705 303.339 44.987 313.191C38.106 316.584 36.902 316.86 29.1222 316.822C21.9429 316.789 19.9505 316.392 15.5885 314.132C9.33262 310.891 4.05618 304.293 1.73198 296.806C-0.403203 289.93 -0.612875 261.442 1.37465 248.119C6.98481 210.494 19.9918 153.925 41.0011 75.7677C51.3276 37.3536 57.3787 16.1991 58.8347 13.4228Z" fill="#F3623A"/>
<path d="M941.819 17.404C950.268 6.38848 954.487 3.53364 966.134 0.951155C968.357 0.457961 972.602 0.0311586 975.566 0.00202771C984.764 -0.0880749 988.089 2.82367 985.768 8.93439C985.142 10.582 969.933 34.1109 951.97 61.2217C934.006 88.3324 919.309 110.634 919.309 110.782C919.309 110.931 936.211 111.058 956.87 111.066C992.312 111.08 994.59 111.153 997.25 112.367C1000.68 113.934 1002.49 116.984 1001.89 120.198C1001.66 121.412 1000.32 124.195 998.914 126.382C995.816 131.196 960.752 176.577 917.523 231.724C896.889 258.046 881.323 277.965 873.157 288.494C851.499 316.421 850.962 317 846.736 317C842.543 317 840.409 312.193 841.81 305.907C842.208 304.118 844.081 299.404 845.972 295.431C847.863 291.458 850.543 285.769 851.93 282.788C854.67 276.897 878.999 226.329 892.629 198.196C897.298 188.558 901.118 180.403 901.118 180.074C901.118 179.735 886.219 179.475 866.77 179.475C836.678 179.475 832.086 179.339 829.695 178.377C826.431 177.065 825.659 175.806 825.659 171.805C825.659 167.487 825.108 168.254 866.83 114.385C904.62 65.5933 934.139 27.4176 941.819 17.404Z" fill="#F3623A"/>
</svg>
